HIERARCHY
ROOT Hips
{
	OFFSET 49.079399 -7.259506 95.639099
	CHANNELS 6 Xposition Yposition Zposition Xrotation Yrotation Zrotation
	JOINT spine
	{
		OFFSET 0.000000 -0.467660 8.132492
		CHANNELS 3 Xrotation Yrotation Zrotation
		JOINT spine1
		{
			OFFSET 0.000000 -0.000002 10.349800
			CHANNELS 3 Xrotation Yrotation Zrotation
			JOINT spine2
			{
				OFFSET 0.000000 -0.000001 9.916992
				CHANNELS 3 Xrotation Yrotation Zrotation
				JOINT Neck
				{
					OFFSET 0.000000 -1.213904 25.461006
					CHANNELS 3 Xrotation Yrotation Zrotation
					JOINT Head
					{
						OFFSET 0.000000 -0.000001 7.692444
						CHANNELS 3 Xrotation Yrotation Zrotation
						End Site
						{
							OFFSET 0.000000 6.140627 18.619995
						}
					}
				}
				JOINT RightShoulder
				{
					OFFSET -4.175751 0.581443 10.709602
					CHANNELS 3 Xrotation Yrotation Zrotation
					JOINT RightArm
					{
						OFFSET 0.000000 -0.000002 14.046600
						CHANNELS 3 Xrotation Yrotation Zrotation
						JOINT RightArmRoll
						{
							OFFSET 0.000000 -0.000001 7.090973
							CHANNELS 3 Xrotation Yrotation Zrotation
							JOINT RightForeArm
							{
								OFFSET 0.000000 -0.000003 20.653503
								CHANNELS 3 Xrotation Yrotation Zrotation
								JOINT RightForeArmRoll
								{
									OFFSET 0.000000 -0.000001 7.957184
									CHANNELS 3 Xrotation Yrotation Zrotation
									JOINT RightHand
									{
										OFFSET 0.000000 -0.000002 15.968292
										CHANNELS 3 Xrotation Yrotation Zrotation
										End Site
										{
											OFFSET 0.000000 -0.000000 0.100006
										}
									}
								}
							}
						}
					}
				}
				JOINT LeftShoulder
				{
					OFFSET 4.175751 0.581443 10.709602
					CHANNELS 3 Xrotation Yrotation Zrotation
					JOINT LeftArm
					{
						OFFSET 0.000000 -0.000002 14.046600
						CHANNELS 3 Xrotation Yrotation Zrotation
						JOINT LeftArmRoll
						{
							OFFSET 0.000000 -0.000001 7.090973
							CHANNELS 3 Xrotation Yrotation Zrotation
							JOINT LeftForeArm
							{
								OFFSET 0.000000 -0.000003 20.653503
								CHANNELS 3 Xrotation Yrotation Zrotation
								JOINT LeftForeArmRoll
								{
									OFFSET 0.000000 -0.000001 7.957184
									CHANNELS 3 Xrotation Yrotation Zrotation
									JOINT LeftHand
									{
										OFFSET 0.000000 -0.000002 15.968292
										CHANNELS 3 Xrotation Yrotation Zrotation
										End Site
										{
											OFFSET 0.000000 -0.000000 0.100006
										}
									}
								}
							}
						}
					}
				}
			}
		}
	}
	JOINT RightUpLeg
	{
		OFFSET -7.208340 1.108840 -1.321823
		CHANNELS 3 Xrotation Yrotation Zrotation
		JOINT RightUpLegRoll
		{
			OFFSET 0.000000 -0.000003 18.723801
			CHANNELS 3 Xrotation Yrotation Zrotation
			JOINT RightLeg
			{
				OFFSET 0.000000 0.000004 -23.186600
				CHANNELS 3 Xrotation Yrotation Zrotation
				JOINT RightLegRoll
				{
					OFFSET 0.000000 -0.000004 23.262398
					CHANNELS 3 Xrotation Yrotation Zrotation
					JOINT RightFoot
					{
						OFFSET 0.000000 -0.000003 19.362099
						CHANNELS 3 Xrotation Yrotation Zrotation
						JOINT RightToeBase
						{
							OFFSET 0.000000 -0.000003 16.185699
							CHANNELS 3 Xrotation Yrotation Zrotation
							End Site
							{
								OFFSET 0.006859 0.903521 7.838623
							}
						}
					}
				}
			}
		}
	}
	JOINT LeftUpLeg
	{
		OFFSET 7.208340 1.108840 -1.321823
		CHANNELS 3 Xrotation Yrotation Zrotation
		JOINT LeftUpLegRoll
		{
			OFFSET 0.000000 -0.000003 18.723900
			CHANNELS 3 Xrotation Yrotation Zrotation
			JOINT LeftLeg
			{
				OFFSET 0.000000 -0.000004 23.186501
				CHANNELS 3 Xrotation Yrotation Zrotation
				JOINT LeftLegRoll
				{
					OFFSET 0.000000 -0.000004 23.477493
					CHANNELS 3 Xrotation Yrotation Zrotation
					JOINT LeftFoot
					{
						OFFSET 0.000000 -0.000003 19.147003
						CHANNELS 3 Xrotation Yrotation Zrotation
						JOINT LeftToeBase
						{
							OFFSET 0.000000 -0.000003 16.185699
							CHANNELS 3 Xrotation Yrotation Zrotation
							End Site
							{
								OFFSET -0.030746 0.903521 7.838623
							}
						}
					}
				}
			}
		}
	}
}
MOTION
Frames: 4
Frame Time: 0.041667
49.481998 -4.112739 96.124092 -5.020268 0.738473 0.769606 -0.771700 -0.422223 0.036789 2.467858 -0.844470 0.075808 4.113016 -0.843625 0.085948 11.653686 0.741388 -5.552145 -0.533393 -1.813761 -5.459173 -19.385086 -59.073418 -22.915037 -44.751270 -117.235416 -25.314973 -0.000002 -0.000046 -0.000011 2.406896 -9.339759 -0.457287 -0.000001 0.000006 -3.005042 -5.000233 -7.998842 0.000105 -13.329735 61.066809 15.822039 -47.365658 117.401909 38.285287 0.000001 0.000002 0.000006 0.082924 9.743081 1.056578 0.000001 -0.000008 3.045290 -5.000220 7.998841 -0.000106 -3.205611 -174.045269 2.854017 -179.999991 0.000005 -0.971999 167.536590 -1.461732 -0.699038 0.000003 0.000001 0.092359 69.495679 6.224146 3.847327 25.459096 -7.351096 0.003202 0.827890 176.184415 -0.335730 -0.000005 0.000011 -1.127910 -14.007059 1.146514 0.637358 0.000001 0.000001 -0.356164 74.186045 -6.627963 -2.543238 25.456863 7.345849 0.000007 
49.491699 -4.119486 96.124496 -5.017868 0.738432 0.761569 -0.770171 -0.422511 0.036866 2.469938 -0.845029 0.075537 4.115096 -0.844168 0.085688 11.653874 0.735902 -5.543906 -0.522222 -1.804634 -5.451336 -19.397471 -59.073145 -22.929695 -44.728597 -117.216168 -25.331411 -0.000004 -0.000047 -0.000009 2.468871 -9.368451 -0.453855 -0.000000 0.000006 -3.005040 -5.000233 -7.998841 0.000103 -13.309371 61.063571 15.798086 -47.343822 117.402674 38.292622 0.000002 0.000001 0.000005 0.082927 9.756539 1.051340 0.000000 -0.000008 3.044900 -5.000221 7.998842 -0.000106 -3.210427 -174.036307 2.856955 -179.999991 0.000005 -0.971999 167.536781 -1.460760 -0.698818 0.000003 0.000001 0.092561 69.490946 6.223004 3.850484 25.459096 -7.351096 0.003203 0.820531 176.192379 -0.334797 -0.000004 0.000010 -1.127910 -14.016990 1.151928 0.637432 0.000000 0.000001 -0.356727 74.192233 -6.630317 -2.533301 25.456858 7.345850 0.000007 
49.498695 -4.108815 96.122391 -5.015408 0.738303 0.753421 -0.768600 -0.422786 0.036979 2.472059 -0.845553 0.075295 4.117218 -0.844676 0.085455 11.653262 0.731272 -5.535693 -0.510490 -1.796408 -5.443484 -19.409352 -59.072435 -22.943748 -44.704312 -117.198820 -25.344231 -0.000004 -0.000045 -0.000007 2.528808 -9.395966 -0.450485 -0.000001 0.000006 -3.005037 -5.000233 -7.998841 0.000103 -13.289321 61.060505 15.774532 -47.323427 117.402769 38.301177 -0.000000 0.000002 0.000005 0.082926 9.769839 1.046211 0.000001 -0.000008 3.044521 -5.000225 7.998841 -0.000106 -3.214989 -174.028343 2.860025 -179.999991 0.000005 -0.971999 167.537683 -1.460764 -0.698794 0.000003 0.000001 0.092774 69.485885 6.221802 3.853752 25.459098 -7.351096 0.003201 0.813070 176.200384 -0.333773 -0.000005 0.000011 -1.127920 -14.026616 1.157254 0.637488 -0.000000 0.000001 -0.357287 74.198196 -6.632667 -2.523176 25.456858 7.345851 0.000007 
49.509998 -4.116047 96.123802 -5.012905 0.738110 0.745197 -0.767000 -0.423054 0.037119 2.474199 -0.846052 0.075073 4.119367 -0.845158 0.085243 11.652151 0.727241 -5.527497 -0.498368 -1.788802 -5.435639 -19.420924 -59.071458 -22.957456 -44.682179 -117.181102 -25.358197 -0.000002 -0.000046 -0.000009 2.587325 -9.422648 -0.447144 0.000002 0.000006 -3.005039 -5.000234 -7.998841 0.000101 -13.269557 61.057615 15.751318 -47.301744 117.403616 38.307963 0.000001 0.000000 0.000003 0.082928 9.783041 1.041173 0.000001 -0.000008 3.044150 -5.000225 7.998841 -0.000106 -3.219388 -174.019382 2.863085 -179.999991 0.000005 -0.971999 167.539185 -1.460773 -0.698757 0.000003 0.000001 0.092994 69.480502 6.220582 3.857031 25.459100 -7.351096 0.003202 0.805532 176.208362 -0.332686 -0.000005 0.000011 -1.127920 -14.036146 1.162532 0.637536 0.000000 0.000001 -0.357846 74.203947 -6.635035 -2.512966 25.456860 7.345850 0.000007 
